<?xml version="1.0" ?>
<!-- Uploaded to: SVG Repo, www.svgrepo.com, Generator: SVG Repo Mixer Tools -->
<svg width="800px" height="800px" viewBox="0 0 20 20" version="1.1" xmlns="http://www.w3.org/2000/svg">
<g id="layer1">
<path d="M 9.5 0 C 8.1252105 0 7 1.1252105 7 2.5 C 7 3.0633617 7.1940199 3.5807403 7.5117188 4 L 7.5 4 C 6.1252115 4 5 5.12521 5 6.5 L 5 10.5 C 5 11.702941 5.8636264 12.715051 7 12.949219 L 7 18.5 C 7 19.328427 7.6715729 20 8.5 20 L 10.5 20 C 10.881817 20 11.225449 19.85211 11.490234 19.617188 L 10.777344 18.904297 C 10.696885 18.959618 10.605022 19 10.5 19 L 10 19 L 10 18.126953 L 9.4472656 17.574219 C 9.2191022 17.355145 9.0576186 17.046661 9 16.734375 L 9 19 L 8.5 19 C 8.2238576 19 8 18.776142 8 18.5 L 8 7.5 C 8 7.2238576 7.7761424 7 7.5 7 C 7.2238576 7 7 7.2238576 7 7.5 L 7 11.910156 C 6.4161964 11.705514 6 11.157682 6 10.5 L 6 6.5 C 6 5.66565 6.6656505 5 7.5 5 L 7.5117188 5 C 8.0640035 5 8.5117188 4.5522847 8.5117188 4 C 8.5111562 3.7827376 8.4403749 3.5712202 8.28125 3.3574219 C 8.1221251 3.1436236 8 2.8417718 8 2.5 C 8 1.6656505 8.6656505 1 9.5 1 C 10.33435 1 11 1.6656505 11 2.5 C 11 2.8417718 10.877896 3.1436223 10.71875 3.3574219 C 10.559605 3.5712214 10.488843 3.7827376 10.488281 4 C 10.488281 4.5522847 10.935996 5 11.488281 5 L 11.5 5 C 12.33435 5 13 5.66565 13 6.5 L 13 10.5 C 13 11.157682 12.583804 11.705514 12 11.910156 L 12 7.5 C 12 7.2238576 11.776142 7 11.5 7 C 11.223858 7 11 7.2238576 11 7.5 L 11 15.085938 C 11.214079 15.167378 11.413484 15.291825 11.568359 15.453125 L 12 15.884766 L 12 12.949219 L 12.001953 12.949219 C 13.138186 12.715051 14 11.702941 14 10.5 L 14 6.5 C 14 5.12521 12.874789 4 11.5 4 L 11.488281 4 C 11.805983 3.5807403 12 3.0633617 12 2.5 C 12 1.1252105 10.87479 0 9.5 0 z M 4.5 1 C 4.285138 1.0000001 4.0801864 1.0362656 3.8808594 1.0878906 C 3.8543284 1.0951006 3.8289194 1.1032691 3.8027344 1.1113281 C 3.6122454 1.16746 3.4326019 1.2442769 3.2636719 1.3417969 C 2.5137879 1.7746902 2 2.5766257 2 3.5 C 2 4.0633617 2.1940148 4.5807403 2.5117188 5 L 2.5 5 C 1.125211 5 0 6.12521 0 7.5 L 0 10.5 C 0 11.702941 0.86190778 12.715051 1.9980469 12.949219 L 2 12.949219 L 2 16.5 C 2 17.328427 2.671573 18 3.5 18 L 5 18 L 6 18 L 6 17 L 5 17 L 5 14.910156 L 5 13.5 C 5 13.223858 4.776142 13 4.5 13 C 4.223858 13 4 13.223858 4 13.5 L 4 17 L 3.5 17 C 3.223858 17 3 16.776142 3 16.5 L 3 8.5 C 3 8.2238576 2.776142 8 2.5 8 C 2.223858 8 2 8.2238576 2 8.5 L 2 11.910156 C 1.416196 11.705514 1 11.157682 1 10.5 L 1 7.5 C 1 6.66565 1.66565 6 2.5 6 L 2.5117188 6 C 3.0640037 6 3.5117188 5.5522848 3.5117188 5 C 3.5111453 4.782732 3.440444 4.5712218 3.28125 4.3574219 C 3.122056 4.1436221 3 3.8417718 3 3.5 C 3 2.6656506 3.66565 2 4.5 2 C 4.788118 2 5.0528871 2.081448 5.2050781 2.1738281 C 5.3572691 2.2662081 5.4473025 2.2925336 5.5390625 2.2929688 C 5.8152055 2.2929688 6.0390625 2.069111 6.0390625 1.7929688 C 6.0390215 1.641509 5.9671356 1.5075681 5.8847656 1.4394531 C 5.8023906 1.3713371 5.7722744 1.3560969 5.7402344 1.3417969 C 5.3733144 1.128618 4.952744 1 4.5 1 z M 14.5 1 C 14.047256 1 13.626686 1.128618 13.259766 1.3417969 C 13.227726 1.3560969 13.197606 1.3713371 13.115234 1.4394531 C 13.032864 1.5075681 12.960976 1.641509 12.960938 1.7929688 C 12.960938 2.0691111 13.184795 2.2929688 13.460938 2.2929688 C 13.552698 2.2925335 13.642731 2.2662078 13.794922 2.1738281 C 13.947113 2.0814485 14.211882 2 14.5 2 C 15.33435 2 16 2.6656505 16 3.5 C 16 3.8417718 15.877944 4.1436221 15.71875 4.3574219 C 15.559556 4.5712218 15.488854 4.782732 15.488281 5 C 15.488281 5.5522847 15.935996 6 16.488281 6 L 16.5 6 C 17.33435 6 18 6.66565 18 7.5 L 18 10.5 C 18 11.157682 17.583804 11.705514 17 11.910156 L 17 8.5 C 17 8.2238576 16.776142 8 16.5 8 C 16.223858 8 16 8.2238576 16 8.5 L 16 14.873047 L 17 13.873047 L 17 12.949219 L 17.001953 12.949219 C 18.137998 12.715051 19 11.702941 19 10.5 L 19 7.5 C 19 6.12521 17.874789 5 16.5 5 L 16.488281 5 C 16.805987 4.5807403 17 4.0633617 17 3.5 C 17 2.5766256 16.486212 1.7746902 15.736328 1.3417969 C 15.567398 1.2442766 15.387755 1.1674598 15.197266 1.1113281 C 15.171081 1.1032638 15.145672 1.0950959 15.119141 1.0878906 C 14.919814 1.0362653 14.714862 1 14.5 1 z M 19.484375 12.996094 C 19.354615 12.999694 19.231345 13.053634 19.140625 13.146484 L 13.494141 18.792969 L 10.847656 16.146484 C 10.376401 15.655678 9.6498182 16.382262 10.140625 16.853516 L 13.140625 19.853516 C 13.33589 20.0487 13.652391 20.0487 13.847656 19.853516 L 19.847656 13.853516 C 20.172926 13.535513 19.939096 12.983623 19.484375 12.996094 z M 9.5 13 C 9.2238576 13 9 13.223858 9 13.5 L 9 16.277344 C 9.0516575 15.937258 9.2091825 15.648239 9.4257812 15.431641 C 9.5820677 15.275354 9.7774079 15.151297 10 15.072266 L 10 13.5 C 10 13.223858 9.7761424 13 9.5 13 z M 14.5 13 C 14.223858 13 14 13.223858 14 13.5 L 14 14.910156 L 14 16.873047 L 15 15.873047 L 15 13.5 C 15 13.223858 14.776142 13 14.5 13 z " style="fill:#222222; fill-opacity:1; stroke:none; stroke-width:0px;"/>
</g>
</svg>